<svg xmlns="http://www.w3.org/2000/svg" version="1.1" xmlns:xlink="http://www.w3.org/1999/xlink" xmlns:svgjs="http://svgjs.dev/svgjs" width="3840" height="2160" preserveAspectRatio="none" viewBox="0 0 3840 2160"><g mask="url(&quot;#SvgjsMask2237&quot;)" fill="none"><rect width="3840" height="2160" x="0" y="0" fill="url(&quot;#SvgjsLinearGradient2238&quot;)"></rect><path d="M1125.48 2443.54C1584.09 2224.42 1582.16 804.15 2242.42 744.79 2902.68 685.43 2800.89 1014.79 3359.36 1014.79 3917.83 1014.79 4189.03 746.7 4476.3 744.79" stroke="rgba(226, 215, 35, 0.75)" stroke-width="2"></path><path d="M1659.63 2476.34C2012.64 2219.16 1836.35 908.11 2423.2 904.99 3010.05 901.87 3488.53 1913.35 3950.34 1963.39" stroke="rgba(226, 215, 35, 0.75)" stroke-width="2"></path><path d="M415.48 2250.75C1021.14 2096.86 1222.24 466.13 2144.39 445.49 3066.54 424.85 3422.09 958.35 3873.3 963.89" stroke="rgba(226, 215, 35, 0.75)" stroke-width="2"></path><path d="M921.99 2374.95C1496.52 2275.71 1783.01 861.56 2691.74 856.08 3600.46 850.6 3986.65 1535.16 4461.48 1547.28" stroke="rgba(226, 215, 35, 0.75)" stroke-width="2"></path><path d="M352.32 2519.54C795.97 2409.58 938.02 1227.42 1625.62 1207.52 2313.22 1187.62 2262.28 1477.52 2898.93 1477.52 3535.58 1477.52 3846.83 1209 4172.23 1207.52" stroke="rgba(226, 215, 35, 0.75)" stroke-width="2"></path></g><defs><mask id="SvgjsMask2237"><rect width="3840" height="2160" fill="#ffffff"></rect></mask><linearGradient x1="0%" y1="50%" x2="100%" y2="50%" gradientUnits="userSpaceOnUse" id="SvgjsLinearGradient2238"><stop stop-color="rgba(20, 20, 0, 1)" offset="0"></stop><stop stop-color="rgba(105, 102, 0, 1)" offset="1"></stop></linearGradient></defs></svg>